<svg xmlns="http://www.w3.org/2000/svg" viewBox="0 0 473.03 153.05"><defs><style>.cls-1{fill:#d4251f;}.cls-2{fill:#fffefd;}</style></defs><g id="图层_2" data-name="图层 2"><g id="图层_1-2" data-name="图层 1"><path class="cls-1" d="M288.31,2.31v16.9A2.29,2.29,0,0,1,286,21.49H261.24a2.32,2.32,0,0,0-2.31,2.3V91.44a2.27,2.27,0,0,1-2.27,2.3h-16.9a2.3,2.3,0,0,1-2.29-2.3V23.79a2.31,2.31,0,0,0-2.3-2.3H210.4a2.28,2.28,0,0,1-2.3-2.28V2.31A2.3,2.3,0,0,1,210.4,0H286a2.31,2.31,0,0,1,2.29,2.31"/><path class="cls-1" d="M421.46,72.24V2.31A2.31,2.31,0,0,0,419.14,0H402.25A2.29,2.29,0,0,0,400,2.31V80a13.74,13.74,0,0,0,13.76,13.75h57a2.31,2.31,0,0,0,2.3-2.3V74.55a2.32,2.32,0,0,0-2.3-2.31Z"/><path class="cls-1" d="M384,19.21V2.31A2.31,2.31,0,0,0,381.72,0H315.87a13.77,13.77,0,0,0-13.76,13.76V80a13.76,13.76,0,0,0,13.76,13.75h65.85a2.3,2.3,0,0,0,2.3-2.3V74.55a2.31,2.31,0,0,0-2.3-2.31H325.89A2.29,2.29,0,0,1,323.6,70V59.9a2.29,2.29,0,0,1,2.29-2.28h48.68a2.27,2.27,0,0,0,2.27-2.3V38.43a2.28,2.28,0,0,0-2.27-2.3H325.89a2.31,2.31,0,0,1-2.29-2.31v-10a2.3,2.3,0,0,1,2.29-2.3h55.83a2.29,2.29,0,0,0,2.3-2.28"/><path class="cls-1" d="M149.88,93.72c24.23-.66,43.25-21.15,43.25-45.41v-46A2.31,2.31,0,0,0,190.85,0H173.93a2.3,2.3,0,0,0-2.29,2.31V48.6c0,12.38-9.51,23.05-21.89,23.63a23,23,0,0,1-24.12-23V2.31A2.32,2.32,0,0,0,123.32,0H106.43a2.31,2.31,0,0,0-2.31,2.31V49.24a44.51,44.51,0,0,0,45.76,44.48"/><path class="cls-1" d="M43.24,0C19,.7,0,21.19,0,45.43v46a2.28,2.28,0,0,0,2.28,2.3h16.9a2.3,2.3,0,0,0,2.3-2.3V45.16c0-12.39,9.51-23.07,21.89-23.63a23,23,0,0,1,24.14,23V91.44a2.29,2.29,0,0,0,2.29,2.3H86.69A2.29,2.29,0,0,0,89,91.44V44.5A44.5,44.5,0,0,0,43.24,0"/><path class="cls-1" d="M44.5,46.88A10.74,10.74,0,1,0,55.23,57.62,10.74,10.74,0,0,0,44.5,46.88"/><path class="cls-2" d="M189.24,117.74a3.61,3.61,0,1,0-3.61-3.61,3.6,3.6,0,0,0,3.61,3.61"/><path class="cls-2" d="M236.31,149.08H199.79a5,5,0,0,1-5.3-4.82V125.43l0,0a4.65,4.65,0,0,0-4.66-4.65v0h-6.3a.22.22,0,0,0-.21.21v3.59a.21.21,0,0,0,.21.2h3.78v0a1.82,1.82,0,0,1,1.82,1.69v18.25l-5.81,3.88a.21.21,0,0,0-.06.28l2.53,4a.23.23,0,0,0,.29.06l5.93-4a8.76,8.76,0,0,0,7.28,4h37.06a.2.2,0,0,0,.21-.2v-3.54a.2.2,0,0,0-.21-.21"/><path class="cls-2" d="M204.48,132.45h9.37v4.73h-9.37Zm0-7.24a1,1,0,0,1,1.11-1.15h8.26v5h-9.37Zm14.1,7.24h9.28v4.72h-9.28Zm0-8.39h8.15c.77,0,1.13.31,1.13,1.15v3.9h-9.28Zm-19.07,22.57H204a.16.16,0,0,1,.1,0,.39.39,0,0,0,.39-.28v-5.81h9.37v6a.39.39,0,0,0,.4.35h3.9a.43.43,0,0,0,.43-.42v-5.9h9.28v5.75a.42.42,0,0,0,.42.36h4.77c.41,0,.43-.44.43-.44V124.38a3.71,3.71,0,0,0-3.65-3.7h-5.73l6.62-5.36a.2.2,0,0,0,.16-.18v-2.89a.22.22,0,0,0-.21-.21H202.17a.2.2,0,0,0-.19.21v2.89a.19.19,0,0,0,.19.2h21.39L217,120.68h-2.51l-4-4.62a.31.31,0,0,0-.42,0l-2.92,2.33a.29.29,0,0,0,0,.41l1.64,1.9h-5.88a3.71,3.71,0,0,0-3.73,3.52v22a.44.44,0,0,0,.41.42"/><path class="cls-2" d="M171.44,149.08h-36.7a5,5,0,0,1-5.12-4.79V125.46a4.68,4.68,0,0,0-4.69-4.65v0h-6.3a.22.22,0,0,0-.22.21v3.59a.21.21,0,0,0,.22.2h3.43v0a1.82,1.82,0,0,1,1.82,1.73V145l-5.47,3.65a.21.21,0,0,0-.06.28l2.54,4a.21.21,0,0,0,.28.06l5.92-4a8.84,8.84,0,0,0,7,4h37.33a.21.21,0,0,0,.21-.21v-3.53a.2.2,0,0,0-.21-.21"/><path class="cls-2" d="M161.88,124.18c.87,0,1.43.43,1.43,1.19v2.78l-23.81,0V125.3c0-1.18,1.24-1.12,1.24-1.12Zm1.43,11.07H139.5v-3.76h23.81Zm0,6.46c0,.92-.72,1-1.21,1H140.67c-1.4,0-1.17-.37-1.17-1.18v-3h23.81Zm6.55-28.25h-8l.93-2.85a.2.2,0,0,0-.2-.2h-4.78a.2.2,0,0,0-.21.19l-.93,2.86H146.16l-.93-2.86a.2.2,0,0,0-.2-.19h-4.78a.2.2,0,0,0-.21.2l.94,2.85h-8a.2.2,0,0,0-.21.2v2.89a.21.21,0,0,0,.21.21h15.62l-2.2,4h-8.33a3.72,3.72,0,0,0-3.86,3.81v16.94a4.52,4.52,0,0,0,4.26,4.61h25.86v0a4.25,4.25,0,0,0,4.26-4.26h0V124.54a3.65,3.65,0,0,0-3.84-3.74H154l2-4h13.88a.22.22,0,0,0,.2-.21v-2.89a.2.2,0,0,0-.2-.2"/><path class="cls-2" d="M124.49,117.73a3.6,3.6,0,1,0-3.61-3.6,3.6,3.6,0,0,0,3.61,3.6"/><path class="cls-2" d="M289.75,139l0,.05v0l0,0"/><path class="cls-2" d="M292.75,127.11c0,.92-.65,1.17-1.29,1.17h-9.09a1.14,1.14,0,0,1-1.19-1.22V116.65c0-1.14,1.25-1.16,1.25-1.16h8.83c1.61,0,1.46,1.08,1.49,1.12s0,10.5,0,10.5m1.76-15v0h-15v0a3.17,3.17,0,0,0-3.18,3.17h0v13.25h0a3.16,3.16,0,0,0,3.08,3.16h15.2a3.17,3.17,0,0,0,3.06-3V115.13a3.16,3.16,0,0,0-3.15-3"/><path class="cls-2" d="M274.48,131.44v-2.19c0-.42-.18-.58-.64-.65,0,0-5.34-.93-7.86-5.53h8a.2.2,0,0,0,.2-.21V120a.2.2,0,0,0-.2-.2h-8.3v-4.36H274a.19.19,0,0,0,.17-.21v-2.85c0-.13-.07-.2-.17-.2H256.35a8.94,8.94,0,0,0,.22-1.83h-3.81a8.93,8.93,0,0,1-2.82,6l2.65,2.73a13.22,13.22,0,0,0,2.63-3.6h5v4.36h-8.49a.21.21,0,0,0-.21.2v2.86a.21.21,0,0,0,.21.21h8c-1.26,3.6-7.44,5.53-7.44,5.53-.42.16-.49.36-.49.79v2.05c0,.29-.1.62.41.55a15.45,15.45,0,0,0,10.68-6.16c.05.07,4.35,6.16,11.17,6.16.39,0,.41-.26.41-.55"/><path class="cls-2" d="M294.79,149.45s0,0,0,.05v-.2h0c0,.06,0,.11,0,.16"/><path class="cls-2" d="M289.77,139.05V142H258.43v-2.85a1.26,1.26,0,0,1,1.06-1.26h29.06c1.36,0,1.22,1.14,1.22,1.15Zm0,9.32c0,1-.51,1.16-1.12,1.16H259.36c-.65,0-.93-.34-.93-.87v-3.33h31.34Zm5-10.24a3.63,3.63,0,0,0-3.56-3.63h-34.5a3.63,3.63,0,0,0-3.56,3.55v11.32a3.64,3.64,0,0,0,3.56,3.56h34.5a3.62,3.62,0,0,0,3.54-3.48s0-.1,0-.16h0V138.13Z"/><path class="cls-2" d="M316.37,143.65v-5.51l14.92,0v5.53Zm0-13.38a1.25,1.25,0,0,1,1.16-1.3H329.9a1.3,1.3,0,0,1,1.39,1.29v4.53H316.37Zm16.3-4.69H314.79a3.65,3.65,0,0,0-3.47,3.63l0,23.84h5.08v-6h14.92v6h5.08V129.34a3.68,3.68,0,0,0-3.7-3.76"/><path class="cls-2" d="M331.28,112.29v4.83a1.65,1.65,0,0,1-1.83,1.71h-12c-.45,0-1.28-.28-1.28-1.71v-4.83h-4.89V118h0a4.24,4.24,0,0,0,4.27,4.25H331.9c1.18,0,4.47-1.11,4.47-4.26v-5.66Z"/><path class="cls-2" d="M358.35,131.77H342.7a3.16,3.16,0,0,0-3,3.15h0V148c0,1.44,1.45,5,5.2,5h13.61v-3.38h-11.2a2.51,2.51,0,0,1-2.84-2.47V135.5h13.91a.2.2,0,0,0,.21-.2V132a.22.22,0,0,0-.21-.21"/><path class="cls-2" d="M358.35,112.12H342.86a3.17,3.17,0,0,0-3.18,3.17h0v7.27a5.38,5.38,0,0,0,5.35,5.72h13.46v-3.39h-11.2a2.51,2.51,0,0,1-2.84-2.46v-6.58h13.91a.21.21,0,0,0,.21-.21v-3.32a.2.2,0,0,0-.21-.2"/></g></g></svg>