<svg xmlns="http://www.w3.org/2000/svg" viewBox="0 0 142.05 37.76"><defs><style>.cls-1{fill:#4b148c;}</style></defs><g id="文字"><path class="cls-1" d="M0,20.29H37.76V17.46H0Z"/><path class="cls-1" d="M4.72,25.72H33V22.89H4.72Z"/><path class="cls-1" d="M33,12H4.72v2.84H33Z"/><path class="cls-1" d="M17.46,37.76h2.83V28.32H17.46Z"/><path class="cls-1" d="M20.29,0H17.46V9.44h2.83Z"/><path class="cls-1" d="M14.87,4.72H12V9.44h2.84Z"/><path class="cls-1" d="M25.72,4.72H22.89V9.44h2.83Z"/><path class="cls-1" d="M12,33h2.84V28.32H12Z"/><path class="cls-1" d="M22.89,33h2.83V28.32H22.89Z"/><rect class="cls-1" x="43.8" y="28.04" width="1.37" height="4.91"/><polygon class="cls-1" points="49.97 30.64 47.95 28.04 46.68 28.04 46.68 32.95 48.03 32.95 48.03 30.26 50.13 32.95 51.32 32.95 51.32 28.04 49.97 28.04 49.97 30.64"/><path class="cls-1" d="M55.19,31.81A1.21,1.21,0,0,1,54,30.5v0a1.22,1.22,0,0,1,1.17-1.3,1.31,1.31,0,0,1,1.07.58l1-.79a2.4,2.4,0,0,0-2.08-1,2.53,2.53,0,0,0-2.59,2.56h0a2.49,2.49,0,0,0,2.53,2.54,2.46,2.46,0,0,0,2.17-1.11l-1-.73A1.35,1.35,0,0,1,55.19,31.81Z"/><path class="cls-1" d="M65.93,28h-2.1V33h1.36v-1.4h.67c1.22,0,2.12-.61,2.12-1.77h0C68,28.68,67.18,28,65.93,28Zm.68,1.8c0,.39-.29.64-.77.64h-.65v-1.3h.64c.49,0,.78.23.78.65Z"/><polygon class="cls-1" points="68.89 29.23 70.36 29.23 70.36 32.95 71.72 32.95 71.72 29.23 73.2 29.23 73.2 28.04 68.89 28.04 68.89 29.23"/><rect class="cls-1" x="74.3" y="28.04" width="1.37" height="4.91"/><path class="cls-1" d="M79.61,27.94A2.58,2.58,0,0,0,77,30.5h0a2.65,2.65,0,0,0,5.29,0v0A2.55,2.55,0,0,0,79.61,27.94Zm1.25,2.57a1.25,1.25,0,0,1-1.25,1.31,1.27,1.27,0,0,1-1.25-1.32v0a1.24,1.24,0,0,1,1.24-1.31,1.28,1.28,0,0,1,1.26,1.33Z"/><polygon class="cls-1" points="85.68 29.23 87.15 29.23 87.15 32.95 88.51 32.95 88.51 29.23 89.99 29.23 89.99 28.04 85.68 28.04 85.68 29.23"/><path class="cls-1" d="M98.72,31.81a1.21,1.21,0,0,1-1.17-1.31v0a1.22,1.22,0,0,1,1.17-1.3,1.31,1.31,0,0,1,1.07.58l1-.79a2.4,2.4,0,0,0-2.08-1,2.53,2.53,0,0,0-2.59,2.56h0a2.49,2.49,0,0,0,2.53,2.54,2.46,2.46,0,0,0,2.17-1.11l-1-.73A1.34,1.34,0,0,1,98.72,31.81Z"/><polygon class="cls-1" points="105.1 29.88 103.36 29.88 103.36 28.04 102 28.04 102 32.95 103.36 32.95 103.36 31.09 105.1 31.09 105.1 32.95 106.46 32.95 106.46 28.04 105.1 28.04 105.1 29.88"/><polygon class="cls-1" points="111.27 30.64 109.25 28.04 107.98 28.04 107.98 32.95 109.33 32.95 109.33 30.26 111.43 32.95 112.62 32.95 112.62 28.04 111.27 28.04 111.27 30.64"/><path class="cls-1" d="M116.55,27.94a2.58,2.58,0,0,0-2.65,2.56h0a2.65,2.65,0,0,0,5.29,0v0A2.55,2.55,0,0,0,116.55,27.94Zm1.25,2.57a1.25,1.25,0,0,1-1.25,1.31,1.27,1.27,0,0,1-1.25-1.32v0a1.25,1.25,0,0,1,1.24-1.31,1.28,1.28,0,0,1,1.26,1.33Z"/><polygon class="cls-1" points="121.84 28.04 120.48 28.04 120.48 32.95 124.22 32.95 124.22 31.76 121.84 31.76 121.84 28.04"/><path class="cls-1" d="M127.73,27.94a2.58,2.58,0,0,0-2.65,2.56h0a2.65,2.65,0,0,0,5.29,0v0A2.55,2.55,0,0,0,127.73,27.94ZM129,30.51a1.25,1.25,0,0,1-1.25,1.31,1.27,1.27,0,0,1-1.25-1.32v0a1.25,1.25,0,0,1,1.24-1.31A1.28,1.28,0,0,1,129,30.5Z"/><polygon class="cls-1" points="139.51 29.83 138.5 28.04 136.95 28.04 138.81 31.11 138.81 32.95 140.18 32.95 140.18 31.09 142.05 28.04 140.52 28.04 139.51 29.83"/><rect class="cls-1" x="58.47" y="28.04" width="3.95" height="1.16"/><rect class="cls-1" x="58.47" y="29.9" width="3.95" height="1.16"/><rect class="cls-1" x="58.47" y="31.78" width="3.95" height="1.16"/><rect class="cls-1" x="91.07" y="28.04" width="3.95" height="1.16"/><rect class="cls-1" x="91.07" y="29.9" width="3.95" height="1.16"/><rect class="cls-1" x="91.07" y="31.78" width="3.95" height="1.16"/><path class="cls-1" d="M134.24,29.09a1.57,1.57,0,0,1,1.19.55l.89-.8a2.49,2.49,0,0,0-.92-.67,3.17,3.17,0,0,0-1.23-.23,3,3,0,0,0-1.41.33,2.37,2.37,0,0,0-1,.91,2.44,2.44,0,0,0-.36,1.32,2.5,2.5,0,0,0,1.32,2.22,2.91,2.91,0,0,0,1.39.33,4.18,4.18,0,0,0,1.1-.16,3.07,3.07,0,0,0,1-.47v-2H135v1.35a1.94,1.94,0,0,1-.75.16,1.44,1.44,0,0,1-.73-.18,1.31,1.31,0,0,1-.49-.5,1.53,1.53,0,0,1-.17-.72,1.32,1.32,0,0,1,1.4-1.41Z"/><polygon class="cls-1" points="69.11 8.89 73.52 7.29 73.52 4.71 69.11 6.31 69.11 8.89"/><path class="cls-1" d="M69.11,13.35l1.8-.65v5.87a12.13,12.13,0,0,1-1.63,6.35h2.83a16.29,16.29,0,0,0,1.41-6.35V9.17l-4.41,1.61Z"/><polygon class="cls-1" points="45.38 10.6 45.38 10.6 45.38 11.47 64.51 11.47 64.51 9.23 48.1 9.23 48.1 8.09 66.09 8.09 66.09 5.84 56.54 5.84 56.54 4.71 53.35 4.71 53.35 5.84 43.8 5.84 43.8 8.09 45.38 8.09 45.38 10.6"/><polygon class="cls-1" points="112.19 19.57 104.67 19.57 104.67 22.03 112.19 22.03 112.19 24.92 114.92 24.92 114.92 22.03 116.71 22.03 116.71 19.57 114.92 19.57 114.92 4.71 112.19 4.71 112.19 9.14 106.61 7.11 106.61 9.89 112.19 11.92 112.19 14.66 106.61 12.63 106.61 15.41 112.19 17.44 112.19 19.57"/><path class="cls-1" d="M86.81,8.33H88.7V24.92h2.62V5.84h-8.7V8.33h1.63c0,1.94,0,5-.07,6.38-.16,3.57-.38,7-1.68,10.21h2.74c1.21-3.24,1.31-6.55,1.48-10.1C86.8,13.27,86.81,10.22,86.81,8.33Z"/><rect class="cls-1" x="45.38" y="12.62" width="19.13" height="2.24"/><path class="cls-1" d="M127.29,14.52l-2.33.84V10h2.33V7.44H125V4.71h-2.85V7.44h-2.36V10h2.36V16.4l-2.36.86v2.93l2.34-.85a9.91,9.91,0,0,1-1.5,5.58h3.2A13,13,0,0,0,125,18.57v-.28l2.33-.85Z"/><path class="cls-1" d="M55.79,17H54.1V16H52v3.74A3.06,3.06,0,0,0,53,22l-1,.54v2.4l2.92-1.7,2.92,1.7v-2.4l-1-.54a3.05,3.05,0,0,0,1-2.23V16H55.79Zm0,2.55A1.46,1.46,0,0,1,55,20.82l-.1.06-.09-.06a1.46,1.46,0,0,1-.75-1.27V19h1.69Z"/><path class="cls-1" d="M49.14,23.7v1.22h2.07V16H45.39v3.7a8.83,8.83,0,0,1-1.53,5.21h2.4a6,6,0,0,0,.58-1.22ZM47.46,18h1.68v.86H47.46Zm0,2.86h1.72v.88H47.32C47.36,21.41,47.39,21.11,47.42,20.82Z"/><path class="cls-1" d="M64.49,19.71V16H58.67v8.91h2.07V21.76h1.83a8.08,8.08,0,0,0,1,3.16H66A8.89,8.89,0,0,1,64.49,19.71Zm-3.75.06V18h1.68v1.81Z"/><path class="cls-1" d="M137.49,21.41c2-1.75,3.33-3.93,3.33-6V13.51h-4.39V10h5V7.44h-5V4.71h-2.85V7.44h-5V10h5v3.47h-4.39v1.87c0,2.1,1.29,4.28,3.33,6A12.29,12.29,0,0,1,128,22.46v2.46a15,15,0,0,0,7-1.81,15,15,0,0,0,7,1.81V22.46A12.34,12.34,0,0,1,137.49,21.41ZM135,20a7.41,7.41,0,0,1-3.08-3.92h6.16A7.5,7.5,0,0,1,135,20Z"/><polygon class="cls-1" points="82.62 17.82 80.03 18.75 80.03 13.12 82.62 13.12 82.62 10.63 80.03 10.63 80.03 5.84 77.36 5.84 77.36 10.63 74.78 10.63 74.78 13.12 77.36 13.12 77.36 19.73 74.78 20.67 74.78 23.3 82.62 20.45 82.62 17.82"/><polygon class="cls-1" points="104.67 15.75 101.15 14.47 101.15 13.12 104.67 13.12 104.67 10.63 101.15 10.63 101.15 7.93 104.67 7.31 104.67 4.71 95.1 6.4 95.1 9 98.62 8.38 98.62 10.63 95.1 10.63 95.1 13.12 97.67 13.12 94.43 22.03 97.11 22.03 98.62 17.89 98.62 24.92 101.15 24.92 101.15 17.25 104.67 18.53 104.67 15.75"/></g></svg>